ISO-10303-21;
HEADER;
/* Generated by software containing ST-Developer
 * from STEP Tools, Inc. (www.steptools.com) 
 */

FILE_DESCRIPTION(
/* description */ (''),
/* implementation_level */ '2;1');

FILE_NAME(
/* name */ 
'C:\\Users\\Gioac\\OneDrive\\Documents\\Inventor\\eva\\les veilleurs\\
export eva\\ecran v00 100x40x3.stp',
/* time_stamp */ '2026-09-24T22:48:29+02:00',
/* author */ ('Gioac'),
/* organization */ (''),
/* preprocessor_version */ 'ST-DEVELOPER v18.1',
/* originating_system */ 'Autodesk Inventor 2021',
/* authorisation */ '');

FILE_SCHEMA (('AUTOMOTIVE_DESIGN { 1 0 10303 214 3 1 1 }'));
ENDSEC;

DATA;
#10=MECHANICAL_DESIGN_GEOMETRIC_PRESENTATION_REPRESENTATION('',(#13),#457);
#11=SHAPE_REPRESENTATION_RELATIONSHIP('SRR','None',#464,#12);
#12=ADVANCED_BREP_SHAPE_REPRESENTATION('',(#14),#456);
#13=STYLED_ITEM('',(#473),#14);
#14=MANIFOLD_SOLID_BREP('Solide1',#279);
#15=FACE_BOUND('',#40,.T.);
#16=FACE_BOUND('',#43,.T.);
#17=FACE_OUTER_BOUND('',#31,.T.);
#18=FACE_OUTER_BOUND('',#32,.T.);
#19=FACE_OUTER_BOUND('',#33,.T.);
#20=FACE_OUTER_BOUND('',#34,.T.);
#21=FACE_OUTER_BOUND('',#35,.T.);
#22=FACE_OUTER_BOUND('',#36,.T.);
#23=FACE_OUTER_BOUND('',#37,.T.);
#24=FACE_OUTER_BOUND('',#38,.T.);
#25=FACE_OUTER_BOUND('',#39,.T.);
#26=FACE_OUTER_BOUND('',#41,.T.);
#27=FACE_OUTER_BOUND('',#42,.T.);
#28=FACE_OUTER_BOUND('',#44,.T.);
#29=FACE_OUTER_BOUND('',#45,.T.);
#30=FACE_OUTER_BOUND('',#46,.T.);
#31=EDGE_LOOP('',(#179,#180,#181,#182));
#32=EDGE_LOOP('',(#183,#184,#185,#186));
#33=EDGE_LOOP('',(#187,#188,#189,#190));
#34=EDGE_LOOP('',(#191,#192,#193,#194));
#35=EDGE_LOOP('',(#195,#196,#197,#198));
#36=EDGE_LOOP('',(#199,#200,#201,#202));
#37=EDGE_LOOP('',(#203,#204,#205,#206));
#38=EDGE_LOOP('',(#207,#208,#209,#210));
#39=EDGE_LOOP('',(#211,#212,#213,#214,#215,#216,#217,#218));
#40=EDGE_LOOP('',(#219,#220,#221,#222));
#41=EDGE_LOOP('',(#223,#224,#225,#226));
#42=EDGE_LOOP('',(#227,#228,#229,#230,#231,#232,#233,#234));
#43=EDGE_LOOP('',(#235,#236,#237,#238));
#44=EDGE_LOOP('',(#239,#240,#241,#242));
#45=EDGE_LOOP('',(#243,#244,#245,#246));
#46=EDGE_LOOP('',(#247,#248,#249,#250));
#47=LINE('',#383,#83);
#48=LINE('',#385,#84);
#49=LINE('',#387,#85);
#50=LINE('',#388,#86);
#51=LINE('',#392,#87);
#52=LINE('',#394,#88);
#53=LINE('',#396,#89);
#54=LINE('',#397,#90);
#55=LINE('',#400,#91);
#56=LINE('',#402,#92);
#57=LINE('',#403,#93);
#58=LINE('',#406,#94);
#59=LINE('',#408,#95);
#60=LINE('',#409,#96);
#61=LINE('',#412,#97);
#62=LINE('',#414,#98);
#63=LINE('',#415,#99);
#64=LINE('',#418,#100);
#65=LINE('',#420,#101);
#66=LINE('',#421,#102);
#67=LINE('',#425,#103);
#68=LINE('',#426,#104);
#69=LINE('',#427,#105);
#70=LINE('',#431,#106);
#71=LINE('',#432,#107);
#72=LINE('',#433,#108);
#73=LINE('',#436,#109);
#74=LINE('',#438,#110);
#75=LINE('',#439,#111);
#76=LINE('',#440,#112);
#77=LINE('',#444,#113);
#78=LINE('',#445,#114);
#79=LINE('',#446,#115);
#80=LINE('',#448,#116);
#81=LINE('',#449,#117);
#82=LINE('',#450,#118);
#83=VECTOR('',#317,10.);
#84=VECTOR('',#318,10.);
#85=VECTOR('',#319,10.);
#86=VECTOR('',#320,10.);
#87=VECTOR('',#323,10.);
#88=VECTOR('',#324,10.);
#89=VECTOR('',#325,10.);
#90=VECTOR('',#326,10.);
#91=VECTOR('',#329,10.);
#92=VECTOR('',#330,10.);
#93=VECTOR('',#331,10.);
#94=VECTOR('',#334,10.);
#95=VECTOR('',#335,10.);
#96=VECTOR('',#336,10.);
#97=VECTOR('',#339,10.);
#98=VECTOR('',#340,10.);
#99=VECTOR('',#341,10.);
#100=VECTOR('',#344,10.);
#101=VECTOR('',#345,10.);
#102=VECTOR('',#346,10.);
#103=VECTOR('',#349,10.);
#104=VECTOR('',#350,10.);
#105=VECTOR('',#351,10.);
#106=VECTOR('',#354,10.);
#107=VECTOR('',#355,10.);
#108=VECTOR('',#356,10.);
#109=VECTOR('',#359,10.);
#110=VECTOR('',#360,10.);
#111=VECTOR('',#361,10.);
#112=VECTOR('',#362,10.);
#113=VECTOR('',#365,10.);
#114=VECTOR('',#366,10.);
#115=VECTOR('',#367,10.);
#116=VECTOR('',#370,10.);
#117=VECTOR('',#371,10.);
#118=VECTOR('',#372,10.);
#119=VERTEX_POINT('',#381);
#120=VERTEX_POINT('',#382);
#121=VERTEX_POINT('',#384);
#122=VERTEX_POINT('',#386);
#123=VERTEX_POINT('',#390);
#124=VERTEX_POINT('',#391);
#125=VERTEX_POINT('',#393);
#126=VERTEX_POINT('',#395);
#127=VERTEX_POINT('',#399);
#128=VERTEX_POINT('',#401);
#129=VERTEX_POINT('',#405);
#130=VERTEX_POINT('',#407);
#131=VERTEX_POINT('',#411);
#132=VERTEX_POINT('',#413);
#133=VERTEX_POINT('',#417);
#134=VERTEX_POINT('',#419);
#135=VERTEX_POINT('',#423);
#136=VERTEX_POINT('',#424);
#137=VERTEX_POINT('',#429);
#138=VERTEX_POINT('',#430);
#139=VERTEX_POINT('',#435);
#140=VERTEX_POINT('',#437);
#141=VERTEX_POINT('',#442);
#142=VERTEX_POINT('',#443);
#143=EDGE_CURVE('',#119,#120,#47,.T.);
#144=EDGE_CURVE('',#121,#119,#48,.T.);
#145=EDGE_CURVE('',#122,#121,#49,.T.);
#146=EDGE_CURVE('',#122,#120,#50,.T.);
#147=EDGE_CURVE('',#123,#124,#51,.T.);
#148=EDGE_CURVE('',#125,#123,#52,.T.);
#149=EDGE_CURVE('',#126,#125,#53,.T.);
#150=EDGE_CURVE('',#126,#124,#54,.T.);
#151=EDGE_CURVE('',#127,#120,#55,.T.);
#152=EDGE_CURVE('',#128,#127,#56,.T.);
#153=EDGE_CURVE('',#128,#119,#57,.T.);
#154=EDGE_CURVE('',#129,#121,#58,.T.);
#155=EDGE_CURVE('',#130,#129,#59,.T.);
#156=EDGE_CURVE('',#130,#122,#60,.T.);
#157=EDGE_CURVE('',#125,#131,#61,.T.);
#158=EDGE_CURVE('',#131,#132,#62,.T.);
#159=EDGE_CURVE('',#126,#132,#63,.T.);
#160=EDGE_CURVE('',#124,#133,#64,.T.);
#161=EDGE_CURVE('',#133,#134,#65,.T.);
#162=EDGE_CURVE('',#123,#134,#66,.T.);
#163=EDGE_CURVE('',#135,#136,#67,.T.);
#164=EDGE_CURVE('',#134,#135,#68,.T.);
#165=EDGE_CURVE('',#136,#133,#69,.T.);
#166=EDGE_CURVE('',#137,#138,#70,.T.);
#167=EDGE_CURVE('',#132,#137,#71,.T.);
#168=EDGE_CURVE('',#138,#131,#72,.T.);
#169=EDGE_CURVE('',#139,#135,#73,.T.);
#170=EDGE_CURVE('',#140,#139,#74,.T.);
#171=EDGE_CURVE('',#140,#138,#75,.T.);
#172=EDGE_CURVE('',#127,#130,#76,.T.);
#173=EDGE_CURVE('',#141,#142,#77,.T.);
#174=EDGE_CURVE('',#142,#140,#78,.T.);
#175=EDGE_CURVE('',#139,#141,#79,.T.);
#176=EDGE_CURVE('',#142,#137,#80,.T.);
#177=EDGE_CURVE('',#141,#136,#81,.T.);
#178=EDGE_CURVE('',#129,#128,#82,.T.);
#179=ORIENTED_EDGE('',*,*,#143,.F.);
#180=ORIENTED_EDGE('',*,*,#144,.F.);
#181=ORIENTED_EDGE('',*,*,#145,.F.);
#182=ORIENTED_EDGE('',*,*,#146,.T.);
#183=ORIENTED_EDGE('',*,*,#147,.F.);
#184=ORIENTED_EDGE('',*,*,#148,.F.);
#185=ORIENTED_EDGE('',*,*,#149,.F.);
#186=ORIENTED_EDGE('',*,*,#150,.T.);
#187=ORIENTED_EDGE('',*,*,#143,.T.);
#188=ORIENTED_EDGE('',*,*,#151,.F.);
#189=ORIENTED_EDGE('',*,*,#152,.F.);
#190=ORIENTED_EDGE('',*,*,#153,.T.);
#191=ORIENTED_EDGE('',*,*,#145,.T.);
#192=ORIENTED_EDGE('',*,*,#154,.F.);
#193=ORIENTED_EDGE('',*,*,#155,.F.);
#194=ORIENTED_EDGE('',*,*,#156,.T.);
#195=ORIENTED_EDGE('',*,*,#149,.T.);
#196=ORIENTED_EDGE('',*,*,#157,.T.);
#197=ORIENTED_EDGE('',*,*,#158,.T.);
#198=ORIENTED_EDGE('',*,*,#159,.F.);
#199=ORIENTED_EDGE('',*,*,#147,.T.);
#200=ORIENTED_EDGE('',*,*,#160,.T.);
#201=ORIENTED_EDGE('',*,*,#161,.T.);
#202=ORIENTED_EDGE('',*,*,#162,.F.);
#203=ORIENTED_EDGE('',*,*,#163,.F.);
#204=ORIENTED_EDGE('',*,*,#164,.F.);
#205=ORIENTED_EDGE('',*,*,#161,.F.);
#206=ORIENTED_EDGE('',*,*,#165,.F.);
#207=ORIENTED_EDGE('',*,*,#166,.F.);
#208=ORIENTED_EDGE('',*,*,#167,.F.);
#209=ORIENTED_EDGE('',*,*,#158,.F.);
#210=ORIENTED_EDGE('',*,*,#168,.F.);
#211=ORIENTED_EDGE('',*,*,#162,.T.);
#212=ORIENTED_EDGE('',*,*,#164,.T.);
#213=ORIENTED_EDGE('',*,*,#169,.F.);
#214=ORIENTED_EDGE('',*,*,#170,.F.);
#215=ORIENTED_EDGE('',*,*,#171,.T.);
#216=ORIENTED_EDGE('',*,*,#168,.T.);
#217=ORIENTED_EDGE('',*,*,#157,.F.);
#218=ORIENTED_EDGE('',*,*,#148,.T.);
#219=ORIENTED_EDGE('',*,*,#146,.F.);
#220=ORIENTED_EDGE('',*,*,#156,.F.);
#221=ORIENTED_EDGE('',*,*,#172,.F.);
#222=ORIENTED_EDGE('',*,*,#151,.T.);
#223=ORIENTED_EDGE('',*,*,#173,.T.);
#224=ORIENTED_EDGE('',*,*,#174,.T.);
#225=ORIENTED_EDGE('',*,*,#170,.T.);
#226=ORIENTED_EDGE('',*,*,#175,.T.);
#227=ORIENTED_EDGE('',*,*,#150,.F.);
#228=ORIENTED_EDGE('',*,*,#159,.T.);
#229=ORIENTED_EDGE('',*,*,#167,.T.);
#230=ORIENTED_EDGE('',*,*,#176,.F.);
#231=ORIENTED_EDGE('',*,*,#173,.F.);
#232=ORIENTED_EDGE('',*,*,#177,.T.);
#233=ORIENTED_EDGE('',*,*,#165,.T.);
#234=ORIENTED_EDGE('',*,*,#160,.F.);
#235=ORIENTED_EDGE('',*,*,#153,.F.);
#236=ORIENTED_EDGE('',*,*,#178,.F.);
#237=ORIENTED_EDGE('',*,*,#154,.T.);
#238=ORIENTED_EDGE('',*,*,#144,.T.);
#239=ORIENTED_EDGE('',*,*,#175,.F.);
#240=ORIENTED_EDGE('',*,*,#169,.T.);
#241=ORIENTED_EDGE('',*,*,#163,.T.);
#242=ORIENTED_EDGE('',*,*,#177,.F.);
#243=ORIENTED_EDGE('',*,*,#174,.F.);
#244=ORIENTED_EDGE('',*,*,#176,.T.);
#245=ORIENTED_EDGE('',*,*,#166,.T.);
#246=ORIENTED_EDGE('',*,*,#171,.F.);
#247=ORIENTED_EDGE('',*,*,#152,.T.);
#248=ORIENTED_EDGE('',*,*,#172,.T.);
#249=ORIENTED_EDGE('',*,*,#155,.T.);
#250=ORIENTED_EDGE('',*,*,#178,.T.);
#251=PLANE('',#299);
#252=PLANE('',#300);
#253=PLANE('',#301);
#254=PLANE('',#302);
#255=PLANE('',#303);
#256=PLANE('',#304);
#257=PLANE('',#305);
#258=PLANE('',#306);
#259=PLANE('',#307);
#260=PLANE('',#308);
#261=PLANE('',#309);
#262=PLANE('',#310);
#263=PLANE('',#311);
#264=PLANE('',#312);
#265=ADVANCED_FACE('',(#17),#251,.T.);
#266=ADVANCED_FACE('',(#18),#252,.T.);
#267=ADVANCED_FACE('',(#19),#253,.T.);
#268=ADVANCED_FACE('',(#20),#254,.T.);
#269=ADVANCED_FACE('',(#21),#255,.T.);
#270=ADVANCED_FACE('',(#22),#256,.T.);
#271=ADVANCED_FACE('',(#23),#257,.T.);
#272=ADVANCED_FACE('',(#24),#258,.T.);
#273=ADVANCED_FACE('',(#25,#15),#259,.T.);
#274=ADVANCED_FACE('',(#26),#260,.T.);
#275=ADVANCED_FACE('',(#27,#16),#261,.T.);
#276=ADVANCED_FACE('',(#28),#262,.T.);
#277=ADVANCED_FACE('',(#29),#263,.T.);
#278=ADVANCED_FACE('',(#30),#264,.T.);
#279=CLOSED_SHELL('',(#265,#266,#267,#268,#269,#270,#271,#272,#273,#274,
#275,#276,#277,#278));
#280=DERIVED_UNIT_ELEMENT(#282,1.);
#281=DERIVED_UNIT_ELEMENT(#459,3.);
#282=(
MASS_UNIT()
NAMED_UNIT(*)
SI_UNIT($,.GRAM.)
);
#283=DERIVED_UNIT((#280,#281));
#284=MEASURE_REPRESENTATION_ITEM('density measure',
POSITIVE_RATIO_MEASURE(8.),#283);
#285=PROPERTY_DEFINITION_REPRESENTATION(#290,#287);
#286=PROPERTY_DEFINITION_REPRESENTATION(#291,#288);
#287=REPRESENTATION('material name',(#289),#456);
#288=REPRESENTATION('density',(#284),#456);
#289=DESCRIPTIVE_REPRESENTATION_ITEM('Acier inoxydable',
'Acier inoxydable');
#290=PROPERTY_DEFINITION('material property','material name',#466);
#291=PROPERTY_DEFINITION('material property','density of part',#466);
#292=DATE_TIME_ROLE('creation_date');
#293=APPLIED_DATE_AND_TIME_ASSIGNMENT(#294,#292,(#466));
#294=DATE_AND_TIME(#295,#296);
#295=CALENDAR_DATE(2026,22,9);
#296=LOCAL_TIME(0,0,0.,#297);
#297=COORDINATED_UNIVERSAL_TIME_OFFSET(0,0,.BEHIND.);
#298=AXIS2_PLACEMENT_3D('placement',#379,#313,#314);
#299=AXIS2_PLACEMENT_3D('',#380,#315,#316);
#300=AXIS2_PLACEMENT_3D('',#389,#321,#322);
#301=AXIS2_PLACEMENT_3D('',#398,#327,#328);
#302=AXIS2_PLACEMENT_3D('',#404,#332,#333);
#303=AXIS2_PLACEMENT_3D('',#410,#337,#338);
#304=AXIS2_PLACEMENT_3D('',#416,#342,#343);
#305=AXIS2_PLACEMENT_3D('',#422,#347,#348);
#306=AXIS2_PLACEMENT_3D('',#428,#352,#353);
#307=AXIS2_PLACEMENT_3D('',#434,#357,#358);
#308=AXIS2_PLACEMENT_3D('',#441,#363,#364);
#309=AXIS2_PLACEMENT_3D('',#447,#368,#369);
#310=AXIS2_PLACEMENT_3D('',#451,#373,#374);
#311=AXIS2_PLACEMENT_3D('',#452,#375,#376);
#312=AXIS2_PLACEMENT_3D('',#453,#377,#378);
#313=DIRECTION('axis',(0.,0.,1.));
#314=DIRECTION('refdir',(1.,0.,0.));
#315=DIRECTION('center_axis',(0.,0.,1.));
#316=DIRECTION('ref_axis',(1.4210854715202E-15,1.,0.));
#317=DIRECTION('',(0.,1.,0.));
#318=DIRECTION('',(-1.,1.41977692136226E-15,0.));
#319=DIRECTION('',(-1.4210854715202E-15,-1.,0.));
#320=DIRECTION('',(-1.,1.41977692136226E-15,0.));
#321=DIRECTION('center_axis',(0.,0.,-1.));
#322=DIRECTION('ref_axis',(-1.4210854715202E-15,-1.,0.));
#323=DIRECTION('',(0.,-1.,0.));
#324=DIRECTION('',(-1.,1.41977692136226E-15,0.));
#325=DIRECTION('',(1.4210854715202E-15,1.,0.));
#326=DIRECTION('',(-1.,1.41977692136226E-15,0.));
#327=DIRECTION('center_axis',(1.,0.,0.));
#328=DIRECTION('ref_axis',(0.,-1.,0.));
#329=DIRECTION('',(0.,0.,-1.));
#330=DIRECTION('',(0.,1.,0.));
#331=DIRECTION('',(0.,0.,-1.));
#332=DIRECTION('center_axis',(-1.,1.4210854715202E-15,0.));
#333=DIRECTION('ref_axis',(1.4210854715202E-15,1.,0.));
#334=DIRECTION('',(0.,0.,-1.));
#335=DIRECTION('',(-1.4210854715202E-15,-1.,0.));
#336=DIRECTION('',(0.,0.,-1.));
#337=DIRECTION('center_axis',(-1.,1.4210854715202E-15,0.));
#338=DIRECTION('ref_axis',(1.4210854715202E-15,1.,0.));
#339=DIRECTION('',(0.,0.,-1.));
#340=DIRECTION('',(-1.4210854715202E-15,-1.,-2.93240637106311E-31));
#341=DIRECTION('',(0.,0.,-1.));
#342=DIRECTION('center_axis',(1.,0.,0.));
#343=DIRECTION('ref_axis',(0.,-1.,0.));
#344=DIRECTION('',(0.,0.,-1.));
#345=DIRECTION('',(0.,1.,0.));
#346=DIRECTION('',(0.,0.,-1.));
#347=DIRECTION('center_axis',(2.06349753750292E-16,0.,-1.));
#348=DIRECTION('ref_axis',(-1.,0.,-2.06349753750292E-16));
#349=DIRECTION('',(0.,-1.,0.));
#350=DIRECTION('',(-1.,-2.44366549335484E-16,-2.06349753750292E-16));
#351=DIRECTION('',(1.,1.12784561231762E-16,2.06349753750292E-16));
#352=DIRECTION('center_axis',(2.06349753750292E-16,0.,-1.));
#353=DIRECTION('ref_axis',(-1.,0.,-2.06349753750292E-16));
#354=DIRECTION('',(0.,1.,0.));
#355=DIRECTION('',(1.,1.12784561231762E-16,2.06349753750292E-16));
#356=DIRECTION('',(-1.,-2.44366549335484E-16,-2.06349753750292E-16));
#357=DIRECTION('center_axis',(-2.44366549335484E-16,1.,0.));
#358=DIRECTION('ref_axis',(1.,2.44366549335484E-16,0.));
#359=DIRECTION('',(0.,0.,-1.));
#360=DIRECTION('',(-1.,-2.44366549335484E-16,0.));
#361=DIRECTION('',(0.,0.,-1.));
#362=DIRECTION('',(1.,2.44366549335484E-16,0.));
#363=DIRECTION('center_axis',(0.,0.,1.));
#364=DIRECTION('ref_axis',(1.,0.,0.));
#365=DIRECTION('',(1.,1.12784561231762E-16,0.));
#366=DIRECTION('',(0.,1.,0.));
#367=DIRECTION('',(0.,-1.,0.));
#368=DIRECTION('center_axis',(1.12784561231762E-16,-1.,0.));
#369=DIRECTION('ref_axis',(-1.,-1.12784561231762E-16,0.));
#370=DIRECTION('',(0.,0.,-1.));
#371=DIRECTION('',(0.,0.,-1.));
#372=DIRECTION('',(-1.,-1.12784561231762E-16,0.));
#373=DIRECTION('center_axis',(-1.,0.,0.));
#374=DIRECTION('ref_axis',(0.,1.,0.));
#375=DIRECTION('center_axis',(1.,0.,0.));
#376=DIRECTION('ref_axis',(0.,-1.,0.));
#377=DIRECTION('center_axis',(0.,0.,-1.));
#378=DIRECTION('ref_axis',(-1.,0.,0.));
#379=CARTESIAN_POINT('',(0.,0.,0.));
#380=CARTESIAN_POINT('Origin',(-470.,-170.,40.));
#381=CARTESIAN_POINT('',(-2280.,-169.999999999997,40.));
#382=CARTESIAN_POINT('',(-2280.,-69.9999999999971,40.));
#383=CARTESIAN_POINT('',(-2280.,-120.,40.));
#384=CARTESIAN_POINT('',(-470.,-170.,40.));
#385=CARTESIAN_POINT('',(-470.,-170.,40.));
#386=CARTESIAN_POINT('',(-470.,-69.9999999999996,40.));
#387=CARTESIAN_POINT('',(-470.,-170.,40.));
#388=CARTESIAN_POINT('',(-470.,-69.9999999999996,40.));
#389=CARTESIAN_POINT('Origin',(-470.,-69.9999999999996,0.));
#390=CARTESIAN_POINT('',(-2280.,-69.9999999999971,0.));
#391=CARTESIAN_POINT('',(-2280.,-169.999999999997,0.));
#392=CARTESIAN_POINT('',(-2280.,-69.9999999999999,0.));
#393=CARTESIAN_POINT('',(-470.,-69.9999999999996,0.));
#394=CARTESIAN_POINT('',(-470.,-69.9999999999996,0.));
#395=CARTESIAN_POINT('',(-470.,-170.,0.));
#396=CARTESIAN_POINT('',(-470.,-120.,0.));
#397=CARTESIAN_POINT('',(-470.,-170.,0.));
#398=CARTESIAN_POINT('Origin',(-2280.,-70.0000000000001,1200.));
#399=CARTESIAN_POINT('',(-2280.,-70.0000000000001,1160.));
#400=CARTESIAN_POINT('',(-2280.,-70.0000000000001,1200.));
#401=CARTESIAN_POINT('',(-2280.,-170.,1160.));
#402=CARTESIAN_POINT('',(-2280.,-95.,1160.));
#403=CARTESIAN_POINT('',(-2280.,-170.,1200.));
#404=CARTESIAN_POINT('Origin',(-470.,-170.,1200.));
#405=CARTESIAN_POINT('',(-470.,-170.,1160.));
#406=CARTESIAN_POINT('',(-470.,-170.,1200.));
#407=CARTESIAN_POINT('',(-470.,-69.9999999999996,1160.));
#408=CARTESIAN_POINT('',(-470.,-145.,1160.));
#409=CARTESIAN_POINT('',(-470.,-69.9999999999996,1200.));
#410=CARTESIAN_POINT('Origin',(-470.,-170.,1200.));
#411=CARTESIAN_POINT('',(-470.,-69.9999999999996,-527.843576998301));
#412=CARTESIAN_POINT('',(-470.,-69.9999999999996,1200.));
#413=CARTESIAN_POINT('',(-470.,-170.,-527.843576998301));
#414=CARTESIAN_POINT('',(-470.,-145.,-527.843576998301));
#415=CARTESIAN_POINT('',(-470.,-170.,1200.));
#416=CARTESIAN_POINT('Origin',(-2280.,-70.0000000000001,1200.));
#417=CARTESIAN_POINT('',(-2280.,-170.,-527.843576998302));
#418=CARTESIAN_POINT('',(-2280.,-170.,1200.));
#419=CARTESIAN_POINT('',(-2280.,-70.0000000000001,-527.843576998302));
#420=CARTESIAN_POINT('',(-2280.,-95.,-527.843576998302));
#421=CARTESIAN_POINT('',(-2280.,-70.0000000000001,1200.));
#422=CARTESIAN_POINT('Origin',(-1375.,-120.,-527.843576998302));
#423=CARTESIAN_POINT('',(-2320.,-70.0000000000001,-527.843576998302));
#424=CARTESIAN_POINT('',(-2320.,-170.,-527.843576998302));
#425=CARTESIAN_POINT('',(-2320.,-145.,-527.843576998302));
#426=CARTESIAN_POINT('',(-1847.5,-70.,-527.843576998302));
#427=CARTESIAN_POINT('',(-1827.5,-170.,-527.843576998302));
#428=CARTESIAN_POINT('Origin',(-1375.,-120.,-527.843576998302));
#429=CARTESIAN_POINT('',(-430.,-170.,-527.843576998301));
#430=CARTESIAN_POINT('',(-430.,-69.9999999999996,-527.843576998301));
#431=CARTESIAN_POINT('',(-430.,-94.9999999999997,-527.843576998301));
#432=CARTESIAN_POINT('',(-902.5,-170.,-527.843576998301));
#433=CARTESIAN_POINT('',(-922.5,-69.9999999999997,-527.843576998301));
#434=CARTESIAN_POINT('Origin',(-2320.,-70.0000000000001,1200.));
#435=CARTESIAN_POINT('',(-2320.,-70.0000000000001,1200.));
#436=CARTESIAN_POINT('',(-2320.,-70.0000000000001,1200.));
#437=CARTESIAN_POINT('',(-430.,-69.9999999999996,1200.));
#438=CARTESIAN_POINT('',(-430.,-69.9999999999996,1200.));
#439=CARTESIAN_POINT('',(-430.,-69.9999999999996,1200.));
#440=CARTESIAN_POINT('',(-430.,-69.9999999999996,1160.));
#441=CARTESIAN_POINT('Origin',(-1375.,-120.,1200.));
#442=CARTESIAN_POINT('',(-2320.,-170.,1200.));
#443=CARTESIAN_POINT('',(-430.,-170.,1200.));
#444=CARTESIAN_POINT('',(-2320.,-170.,1200.));
#445=CARTESIAN_POINT('',(-430.,-170.,1200.));
#446=CARTESIAN_POINT('',(-2320.,-70.0000000000001,1200.));
#447=CARTESIAN_POINT('Origin',(-430.,-170.,1200.));
#448=CARTESIAN_POINT('',(-430.,-170.,1200.));
#449=CARTESIAN_POINT('',(-2320.,-170.,1200.));
#450=CARTESIAN_POINT('',(-2320.,-170.,1160.));
#451=CARTESIAN_POINT('Origin',(-2320.,-170.,1200.));
#452=CARTESIAN_POINT('Origin',(-430.,-69.9999999999996,1200.));
#453=CARTESIAN_POINT('Origin',(-1375.,-120.,1160.));
#454=UNCERTAINTY_MEASURE_WITH_UNIT(LENGTH_MEASURE(0.01),#458,
'DISTANCE_ACCURACY_VALUE',
'Maximum model space distance between geometric entities at asserted c
onnectivities');
#455=UNCERTAINTY_MEASURE_WITH_UNIT(LENGTH_MEASURE(0.01),#458,
'DISTANCE_ACCURACY_VALUE',
'Maximum model space distance between geometric entities at asserted c
onnectivities');
#456=(
GEOMETRIC_REPRESENTATION_CONTEXT(3)
GLOBAL_UNCERTAINTY_ASSIGNED_CONTEXT((#454))
GLOBAL_UNIT_ASSIGNED_CONTEXT((#458,#460,#461))
REPRESENTATION_CONTEXT('','3D')
);
#457=(
GEOMETRIC_REPRESENTATION_CONTEXT(3)
GLOBAL_UNCERTAINTY_ASSIGNED_CONTEXT((#455))
GLOBAL_UNIT_ASSIGNED_CONTEXT((#458,#460,#461))
REPRESENTATION_CONTEXT('','3D')
);
#458=(
LENGTH_UNIT()
NAMED_UNIT(*)
SI_UNIT(.MILLI.,.METRE.)
);
#459=(
LENGTH_UNIT()
NAMED_UNIT(*)
SI_UNIT(.CENTI.,.METRE.)
);
#460=(
NAMED_UNIT(*)
PLANE_ANGLE_UNIT()
SI_UNIT($,.RADIAN.)
);
#461=(
NAMED_UNIT(*)
SI_UNIT($,.STERADIAN.)
SOLID_ANGLE_UNIT()
);
#462=SHAPE_DEFINITION_REPRESENTATION(#463,#464);
#463=PRODUCT_DEFINITION_SHAPE('',$,#466);
#464=SHAPE_REPRESENTATION('',(#298),#456);
#465=PRODUCT_DEFINITION_CONTEXT('part definition',#470,'design');
#466=PRODUCT_DEFINITION('ecran v00 100x40x3','ecran v00 100x40x3',#467,
#465);
#467=PRODUCT_DEFINITION_FORMATION('',$,#472);
#468=PRODUCT_RELATED_PRODUCT_CATEGORY('ecran v00 100x40x3',
'ecran v00 100x40x3',(#472));
#469=APPLICATION_PROTOCOL_DEFINITION('international standard',
'automotive_design',2009,#470);
#470=APPLICATION_CONTEXT(
'Core Data for Automotive Mechanical Design Process');
#471=PRODUCT_CONTEXT('part definition',#470,'mechanical');
#472=PRODUCT('ecran v00 100x40x3','ecran v00 100x40x3',$,(#471));
#473=PRESENTATION_STYLE_ASSIGNMENT((#474));
#474=SURFACE_STYLE_USAGE(.BOTH.,#477);
#475=SURFACE_STYLE_RENDERING_WITH_PROPERTIES($,#481,(#476));
#476=SURFACE_STYLE_TRANSPARENT(0.);
#477=SURFACE_SIDE_STYLE('',(#478,#475));
#478=SURFACE_STYLE_FILL_AREA(#479);
#479=FILL_AREA_STYLE('',(#480));
#480=FILL_AREA_STYLE_COLOUR('',#481);
#481=COLOUR_RGB('',0.745098039215686,0.737254901960784,0.729411764705882);
ENDSEC;
END-ISO-10303-21;
